<svg xmlns="http://www.w3.org/2000/svg" viewBox="0 0 119.76 140" role="img" aria-label="Hartford Funds" fill="currentColor"><title>Hartford Funds</title><path fill-rule="evenodd" d="M1.71 30.09 13.69 30.22 14.11 34.24 13.91 56.21 14.61 58.13 15.12 58.23 45.07 58.13 45.76 57.01 45.99 30.23 57.97 30.09 57.97 98.45 45.99 98.32 45.76 71.54 45.27 70.41 44.15 70.12 14.61 70.42 13.91 72.95 13.84 98.08 13.30 98.55 1.71 98.45 1.64 30.23ZM67.84 30.09 118.14 30.00 118.86 31.26 118.52 41.27 80.74 41.59 80.04 43.71 80.44 51.37 80.05 57.02 80.80 59.08 113.28 59.26 114.51 60.25 114.51 69.92 113.30 71.13 80.74 71.22 80.04 72.54 80.07 95.71 80.44 96.53 79.61 98.52 67.77 98.32 67.77 30.23ZM115.39 116.76 118.73 116.92 119.53 117.93 119.55 128.59 118.73 129.98 1.61 130.00 0.96 129.84 0.00 128.59 0.02 117.72 0.48 117.17 2.02 116.90 115.25 116.83Z"/></svg>