<svg xmlns="http://www.w3.org/2000/svg" viewBox="0 0 500 114" role="img" aria-label="Dawn Capital" fill="currentColor">
  <g transform="translate(0.0000 0.0000)" fill="currentColor">
<path d="M427.863 114H410.142V9.59195C407.947 6.91865 405.751 4.40267 403.242 1.57205V0H424.727L487.769 78.6201V24.0574C487.769 13.8373 486.828 6.4467 481.34 0H500V114H493.885L422.375 25.0013V89.9414C422.375 100.163 423.315 107.553 427.863 114Z" fill="currentColor"></path><path d="M294.008 0.786592V0H312.356C313.767 5.50278 314.081 6.76134 315.962 12.4214L337.29 76.5761L355.168 25.1587C356.893 20.1267 358.148 14.6228 358.148 10.5347C358.148 6.4467 356.893 2.35866 355.325 0H375.398C372.575 7.86144 371.007 12.8934 369.439 17.6107L336.036 114H331.644L307.494 40.568L282.403 114H277.855L249.784 28.4601C246.334 17.9254 242.571 6.91865 238.649 0.786592V0H258.879C259.978 4.71732 260.448 6.28938 262.801 13.208L283.658 76.4188L296.046 40.2534C298.399 33.1774 300.28 28.6174 300.28 23.7428C300.28 19.0266 299.026 14.3093 297.301 9.59195L294.008 0.786592Z" fill="currentColor"></path><path d="M124.843 114C127.665 108.339 129.547 103.936 130.958 100.163L163.421 12.8934C164.518 10.0628 164.989 7.2333 164.989 4.56C164.989 2.98794 164.832 1.41474 164.518 0H182.709L210.624 83.9667C213.604 92.7721 218.465 105.823 224.424 113.056V114H201.528C200.744 110.383 199.019 104.723 197.451 99.848L190.08 77.6773H151.188L146.954 88.8413C145.073 93.8733 143.817 98.7479 143.817 103.151C143.817 107.239 144.916 111.012 146.954 114H124.843ZM155.108 66.9841H186.474L171.732 22.4854L155.108 66.9841Z" fill="currentColor"></path><path d="M0 0H41.8717C77.3129 0 103.032 16.8241 103.032 53.7761C103.032 91.9866 77.7836 114 37.4808 114H5.95877V24.0574C5.95877 13.8373 4.86161 6.60402 0 0ZM23.5236 82.7093C23.5236 91.8293 23.5236 97.0881 23.5236 102.993H38.578C70.4127 102.993 85.1544 85.2241 85.1544 58.4934C85.1544 26.888 69.0017 11.0067 39.3625 11.0067H23.5236V82.7093Z" fill="currentColor"></path>
  </g>
</svg>
