<svg xmlns="http://www.w3.org/2000/svg" viewBox="0 0 89.46 26.8" role="img" aria-label="London Stock Exchange Group" fill="currentColor">
  <g transform="translate(-0.0000 -10.6000)" fill="currentColor">
<defs>
<style>
.cls-1 {
fill: none;
}
.cls-2 {
fill:currentColor;
}
</style>
</defs>
<g id="logo">
<g>
<g>
<path class="cls-2" d="M89.06,26.4v6.1c0,1.6.14,2.7.31,3.38v.19c-2.1.68-5.35,1.22-7.73,1.22-9,0-14.85-5.24-14.85-13.28s5.53-13.41,14.04-13.41c2.6,0,5.21.48,6.86,1.22v5.31h-.19c-1.65-1.54-4.11-2.46-6.75-2.46-5.36,0-8.51,3.3-8.51,9.14s3.41,9.38,9.35,9.38c.79,0,1.6-.09,2.35-.24v-6.39c-2.35,0-3.66.19-4.86.41h-.19v-4.9h.19c1.23.24,2.61.41,5.14.41h5.24v.19c-.24.71-.4,2.13-.4,3.69h0v.04Z"/>
<path class="cls-2" d="M54,33.1h-2.93v-7.49h2.93c2.75,0,4.24.19,5.62.47h.19v-5.03h-.19c-1.39.31-2.85.47-5.62.47h-2.93v-6.74h3.01c3.16,0,5.55.34,7.05,1.1h.14v-4.9h-16.5v.19c.62,1.07,1.05,3.25,1.05,5.48v14.56c0,2.25-.41,4.42-1.05,5.48v.19h17.39v-5.24h-.19c-1.96,1.02-4.64,1.46-7.96,1.46h-.01Z"/>
<path class="cls-2" d="M32.21,21.87c-3.35-1.31-5.21-1.96-5.21-4.16,0-1.99,1.44-3.06,4-3.06,2.15,0,3.98.76,5.89,2.35h.19v-5.24c-1.7-.73-3.8-1.1-5.89-1.1-5.86,0-9.45,3.01-9.45,7.91s3.35,6.18,6.99,7.6c3.35,1.31,5.21,1.96,5.21,4.16,0,1.99-1.49,3.04-4.16,3.04s-4.86-.94-7.36-3.16h-.19v5.66c2.07.97,4.76,1.53,7.3,1.53,5.98,0,9.66-3.01,9.66-7.86s-3.32-6.24-6.99-7.65h.01Z"/>
<path class="cls-2" d="M8.68,33.1h-2.35v-16.43c0-2.25.41-4.43,1.05-5.5v-.19H0v.19c.62,1.07,1.05,3.25,1.05,5.5v14.56c0,2.25-.41,4.42-1.05,5.48v.19h16.81v-5.29h-.19c-1.99,1.02-4.64,1.49-7.96,1.49h.01Z"/>
</g>
</g>
</g>
  </g>
</svg>
